<svg width="152" height="230" viewBox="0 0 152 230" fill="none" xmlns="http://www.w3.org/2000/svg">
<mask id="mask0" mask-type="alpha" maskUnits="userSpaceOnUse" x="0" y="0" width="152" height="230">
<rect width="152" height="230" rx="10" fill="white"/>
</mask>
<g mask="url(#mask0)">
<rect width="152" height="230" fill="white"/>
<path d="M0 0H152V82H0V0Z" fill="#0B7261"/>
<rect y="220" width="152" height="10" fill="#2A3439"/>
<circle cx="76" cy="84" r="62" fill="#E5EAF2" stroke="white" stroke-width="4"/>
<path d="M114.89 93.4189L113.743 91.0433C113.749 90.9534 113.754 90.863 113.754 90.7723C113.754 88.0794 110.953 85.5976 106.242 83.6104V85.2627C105.783 85.0804 105.304 84.9029 104.806 84.7314V83.9611C98.0729 81.5329 88.0495 79.9922 76.853 79.9922C67.0706 79.9922 58.1828 81.1683 51.6029 83.0848V85.7682H51.6027V82.5203C44.8615 84.6626 40.6821 87.6386 40.6821 90.9293C40.6821 91.448 40.7866 91.9589 40.9877 92.46L40.301 93.6824C40.301 93.6824 39.7508 94.396 40.7196 95.9017C41.574 97.2296 45.8541 102.427 48.1131 105.149C49.0835 106.544 49.7415 107.403 49.799 107.32C49.8897 107.189 49.1957 104.569 47.2687 101.58C46.3694 99.975 45.2957 97.8481 44.6511 96.2772C46.4505 97.4162 57.0229 102.74 78.5881 102.718C100.628 102.696 110.424 95.7974 111.499 94.8583C111.124 96.3677 109.84 99.4214 108.816 101.569C107.134 104.64 106.525 107.314 106.603 107.447C106.653 107.53 107.227 106.645 108.073 105.21C110.042 102.403 113.775 97.0457 114.52 95.681C115.366 94.1339 114.89 93.4189 114.89 93.4189Z" fill="#A52B00"/>
<path d="M121.552 93.4074L114.015 87.855C113.944 87.608 113.873 87.3609 113.8 87.1158L116.276 83.5292C116.528 83.1644 116.579 82.6901 116.415 82.2741C116.251 81.8601 115.891 81.5633 115.466 81.4907L111.28 80.7802C111.118 80.4491 110.948 80.1231 110.777 79.7999L112.536 75.773C112.717 75.3629 112.679 74.8862 112.439 74.5139C112.2 74.1398 111.794 73.9213 111.362 73.9384L107.113 74.0927C106.893 73.8062 106.67 73.5224 106.442 73.2437L107.418 68.9277C107.517 68.4895 107.392 68.0306 107.087 67.7122C106.783 67.395 106.342 67.2637 105.923 67.3665L101.784 68.3839C101.516 68.1471 101.244 67.9134 100.968 67.6842L101.117 63.2533C101.133 62.8048 100.924 62.3786 100.565 62.1296C100.206 61.8791 99.7511 61.8415 99.3586 62.0275L95.498 63.863C95.1871 63.6846 94.8743 63.508 94.5583 63.337L93.8761 58.9707C93.8068 58.5284 93.5223 58.1526 93.1238 57.981C92.7262 57.8084 92.2711 57.8644 91.9222 58.1269L88.4802 60.7095C88.1411 60.5969 87.8006 60.4891 87.4562 60.3858L85.9726 56.2453C85.8217 55.8232 85.4738 55.5132 85.0495 55.426C84.6268 55.3396 84.1919 55.486 83.8987 55.8136L81.0013 59.0549C80.6512 59.0147 80.3005 58.9779 79.9491 58.9474L77.7119 55.1782C77.4854 54.7965 77.0852 54.5641 76.6537 54.5641C76.2235 54.5641 75.8225 54.7965 75.5975 55.1782L73.3598 58.9474C73.0082 58.9779 72.656 59.0147 72.3064 59.0549L69.409 55.8136C69.1155 55.486 68.679 55.3396 68.2574 55.426C67.8337 55.5143 67.4853 55.8232 67.3353 56.2453L65.8505 60.3858C65.5065 60.4891 65.166 60.5977 64.8264 60.7095L61.3855 58.1269C61.0356 57.8634 60.5801 57.8076 60.1821 57.981C59.7849 58.1526 59.4992 58.5284 59.4303 58.9707L58.7477 63.337C58.4321 63.508 58.1193 63.6837 57.8076 63.863L53.9474 62.0275C53.5553 61.8408 53.0976 61.8791 52.7405 62.1296C52.3821 62.3786 52.1724 62.8048 52.1886 63.2533L52.337 67.6842C52.062 67.9134 51.7901 68.1471 51.5208 68.3839L47.3832 67.3665C46.963 67.2645 46.5223 67.395 46.218 67.7122C45.912 68.0306 45.788 68.4895 45.8864 68.9277L46.8608 73.2437C46.6349 73.5235 46.4111 73.8062 46.1918 74.0927L41.943 73.9384C41.5143 73.9255 41.105 74.1398 40.8654 74.5139C40.6254 74.8862 40.589 75.3629 40.7677 75.773L42.5278 79.7999C42.3569 80.1231 42.1872 80.4491 42.0235 80.7802L37.8375 81.4907C37.412 81.5623 37.0535 81.8589 36.8881 82.2741C36.7239 82.6901 36.7772 83.1644 37.0281 83.5292L39.5044 87.1158C39.4853 87.1792 39.4676 87.243 39.4486 87.3066L32.4475 94.7436C32.4475 94.7436 31.3744 95.5845 32.9364 97.5608C34.3139 99.3041 41.3868 106.215 45.1222 109.835C46.6998 111.673 47.7807 112.812 47.8935 112.713C48.0717 112.557 47.1362 109.213 44.0287 105.289C41.6332 101.769 38.5243 96.3543 39.2534 95.7302C39.2534 95.7302 40.0826 94.6775 41.7464 93.9198C41.8073 93.9684 41.6835 93.8716 41.7464 93.9198C41.7464 93.9198 76.8579 110.116 109.427 94.1938C113.148 93.5264 115.4 95.5195 115.4 95.5195C116.177 95.9698 114.165 101.537 112.511 105.223C110.262 109.407 109.932 112.673 110.123 112.786C110.243 112.858 111.062 111.612 112.229 109.63C115.11 105.616 120.555 97.964 121.552 96.1053C122.682 93.998 121.552 93.4074 121.552 93.4074Z" fill="#F74C00"/>
<path d="M106.199 91.33C106.199 91.33 111.251 91.0958 117.887 84.3511L118.827 82.2631C118.827 82.2631 108.528 72.0176 124.539 64.9455C124.539 64.9455 123.137 67.2361 123.548 76.0863C123.548 76.0863 128.376 74.4097 129.791 66.592C129.791 66.592 136.832 75.8758 122.143 84.5828C122.143 84.5828 115.252 95.6303 105.537 94.5721L106.199 91.33Z" fill="#F74C00"/>
<path d="M83.3136 84.9666C83.3136 84.9666 86.8224 81.1245 90.3314 84.9666C90.3314 84.9666 93.0884 90.0896 90.3314 92.6508C90.3314 92.6508 85.8201 96.2369 83.3136 92.6508C83.3136 92.6508 80.3061 89.8332 83.3136 84.9666Z" fill="black"/>
<path d="M87.377 86.3926C87.377 87.8885 86.4952 89.1014 85.4075 89.1014C84.3199 89.1014 83.4381 87.8885 83.4381 86.3926C83.4381 84.8964 84.3199 83.6834 85.4075 83.6834C86.4952 83.6834 87.377 84.8964 87.377 86.3926Z" fill="white"/>
<path d="M67.6529 83.9168C67.6529 83.9168 73.6716 81.2518 75.3144 87.2002C75.3144 87.2002 77.0353 94.1333 70.3716 94.5246C70.3716 94.5246 61.8744 92.8879 67.6529 83.9168Z" fill="black"/>
<path d="M70.6758 86.4914C70.6758 88.0341 69.7665 89.2852 68.6447 89.2852C67.5233 89.2852 66.6136 88.0341 66.6136 86.4914C66.6136 84.9482 67.5233 83.6973 68.6447 83.6973C69.7665 83.6973 70.6758 84.9482 70.6758 86.4914Z" fill="white"/>
<path d="M75.3668 96.949L83.0424 96.3331C83.0424 96.3331 82.7823 97.5686 81.7809 98.4961C81.7809 98.4961 79.1409 101.391 76.112 98.2555C76.112 98.2555 75.6164 97.7207 75.3668 96.949Z" fill="black"/>
<path d="M44.6309 89.8433C44.5675 89.8433 44.5054 89.8479 44.4434 89.8529C41.9512 89.2856 34.946 87.4603 33.0944 84.4984C33.0944 84.4984 42.5209 73.7755 27.7877 66.9216L29.5031 78.785C29.5031 78.785 24.9612 75.7498 23.9811 69.1571C23.9811 69.1571 12.9209 77.184 28.8626 84.8771C28.8626 84.8771 30.3085 90.3099 44.1907 94.6446L44.2009 94.6032C44.3407 94.6291 44.4837 94.6446 44.6309 94.6446C45.9426 94.6446 47.0062 93.5699 47.0062 92.2438C47.0062 90.918 45.9426 89.8433 44.6309 89.8433Z" fill="#F74C00"/>
<rect x="59" y="8" width="34" height="4" rx="2" fill="white"/>
<rect x="44" y="156" width="64" height="16" rx="4" fill="#2A3439" fill-opacity="0.1"/>
<rect x="30" y="180" width="92" height="10" rx="2" fill="#2A3439" fill-opacity="0.1"/>
<rect x="58" y="198" width="36" height="10" rx="2" fill="#2A3439" fill-opacity="0.1"/>
</g>
</svg>
